<svg width="23" height="23" viewBox="0 0 23 23" fill="none" xmlns="http://www.w3.org/2000/svg">
<path d="M4.525 9.7375C6.325 13.275 9.225 16.175 12.7625 17.975L15.5125 15.225C15.8625 14.875 16.35 14.775 16.7875 14.9125C18.1875 15.375 19.6875 15.625 21.25 15.625C21.5815 15.625 21.8995 15.7567 22.1339 15.9911C22.3683 16.2255 22.5 16.5435 22.5 16.875V21.25C22.5 21.5815 22.3683 21.8995 22.1339 22.1339C21.8995 22.3683 21.5815 22.5 21.25 22.5C15.6141 22.5 10.2091 20.2612 6.22398 16.276C2.23883 12.2909 0 6.88585 0 1.25C0 0.918479 0.131696 0.600537 0.366116 0.366116C0.600537 0.131696 0.918479 0 1.25 0H5.625C5.95652 0 6.27446 0.131696 6.50888 0.366116C6.7433 0.600537 6.875 0.918479 6.875 1.25C6.875 2.8125 7.125 4.3125 7.5875 5.7125C7.725 6.15 7.625 6.6375 7.275 6.9875L4.525 9.7375Z" fill="#F7941D"/>
</svg>
